<svg width="15" height="13" viewBox="0 0 15 13" fill="none" xmlns="http://www.w3.org/2000/svg">
<path d="M14.55 6.41331L8.925 12.0383C8.83614 12.1211 8.71861 12.1662 8.59717 12.164C8.47574 12.1619 8.35987 12.1127 8.27399 12.0268C8.1881 11.9409 8.13891 11.8251 8.13677 11.7036C8.13462 11.5822 8.1797 11.4647 8.2625 11.3758L13.0867 6.55081H0.46875C0.34443 6.55081 0.225201 6.50142 0.137294 6.41351C0.049386 6.32561 0 6.20638 0 6.08206C0 5.95774 0.049386 5.83851 0.137294 5.7506C0.225201 5.66269 0.34443 5.61331 0.46875 5.61331H13.0867L8.2625 0.788307C8.1797 0.699448 8.13462 0.581919 8.13677 0.460481C8.13891 0.339043 8.1881 0.223177 8.27399 0.137294C8.35987 0.0514105 8.47574 0.00221566 8.59717 7.30296e-05C8.71861 -0.00206961 8.83614 0.0430072 8.925 0.125807L14.55 5.75081C14.6378 5.8387 14.6871 5.95784 14.6871 6.08206C14.6871 6.20628 14.6378 6.32542 14.55 6.41331Z" fill="white"/>
</svg>
