<svg width="12" height="10" viewBox="0 0 12 10" fill="none" xmlns="http://www.w3.org/2000/svg">
<path d="M3.17247 3.24481L1.44091 4.68762L3.17247 6.13043C3.2299 6.1775 3.27744 6.23546 3.31235 6.30099C3.34727 6.36651 3.36886 6.4383 3.3759 6.51221C3.38293 6.58613 3.37526 6.6607 3.35333 6.73164C3.3314 6.80257 3.29565 6.86846 3.24813 6.92551C3.20061 6.98256 3.14227 7.02963 3.07646 7.06402C3.01066 7.09841 2.9387 7.11944 2.86473 7.12588C2.79077 7.13232 2.71626 7.12405 2.6455 7.10156C2.57474 7.07906 2.50914 7.04278 2.45247 6.99481L0.202472 5.11981C0.139102 5.06702 0.0881164 5.00094 0.0531268 4.92625C0.0181373 4.85157 0 4.7701 0 4.68762C0 4.60514 0.0181373 4.52368 0.0531268 4.44899C0.0881164 4.3743 0.139102 4.30822 0.202472 4.25543L2.45247 2.38043C2.56726 2.28637 2.71456 2.24147 2.8623 2.25553C3.01004 2.26959 3.14624 2.34146 3.24122 2.45549C3.3362 2.56952 3.38227 2.71646 3.3694 2.86431C3.35652 3.01215 3.28574 3.14892 3.17247 3.24481ZM11.4225 4.25543L9.17247 2.38043C9.11581 2.33246 9.0502 2.29618 8.97945 2.27368C8.90869 2.25119 8.83418 2.24292 8.76021 2.24937C8.68624 2.25581 8.61429 2.27683 8.54848 2.31122C8.48268 2.34561 8.42434 2.39268 8.37682 2.44973C8.3293 2.50678 8.29354 2.57267 8.27161 2.64361C8.24968 2.71454 8.24201 2.78911 8.24905 2.86303C8.25608 2.93694 8.27768 3.00873 8.31259 3.07426C8.34751 3.13978 8.39505 3.19775 8.45247 3.24481L10.184 4.68762L8.45247 6.13043C8.39505 6.1775 8.34751 6.23546 8.31259 6.30099C8.27768 6.36651 8.25608 6.4383 8.24905 6.51221C8.24201 6.58613 8.24968 6.6607 8.27161 6.73164C8.29354 6.80257 8.3293 6.86846 8.37682 6.92551C8.42434 6.98256 8.48268 7.02963 8.54848 7.06402C8.61429 7.09841 8.68624 7.11944 8.76021 7.12588C8.83418 7.13232 8.90869 7.12405 8.97945 7.10156C9.0502 7.07906 9.11581 7.04278 9.17247 6.99481L11.4225 5.11981C11.4858 5.06702 11.5368 5.00094 11.5718 4.92625C11.6068 4.85157 11.6249 4.7701 11.6249 4.68762C11.6249 4.60514 11.6068 4.52368 11.5718 4.44899C11.5368 4.3743 11.4858 4.30822 11.4225 4.25543ZM7.50466 0.0338712C7.43523 0.00861989 7.3615 -0.00270477 7.28768 0.0005441C7.21387 0.00379297 7.14142 0.0215518 7.07447 0.052806C7.00752 0.0840602 6.94739 0.128197 6.8975 0.182697C6.84761 0.237196 6.80895 0.30099 6.78372 0.370434L3.78372 8.62043C3.73287 8.76061 3.73976 8.91524 3.80287 9.05034C3.86598 9.18544 3.98015 9.28995 4.12028 9.3409C4.18181 9.36362 4.24689 9.37521 4.31247 9.37512C4.42796 9.37514 4.54066 9.33961 4.63526 9.27336C4.72985 9.20711 4.80176 9.11335 4.84122 9.00481L7.84122 0.754809C7.86647 0.685373 7.8778 0.611643 7.87455 0.53783C7.8713 0.464017 7.85354 0.391567 7.82229 0.324619C7.79103 0.257671 7.7469 0.197535 7.6924 0.147648C7.6379 0.0977609 7.5741 0.0590991 7.50466 0.0338712Z" fill="#777BB3"/>
</svg>
