<svg width="17" height="20" viewBox="0 0 17 20" fill="none" xmlns="http://www.w3.org/2000/svg">
<path d="M13.2806 11.4694C13.3504 11.539 13.4057 11.6217 13.4434 11.7128C13.4812 11.8038 13.5006 11.9014 13.5006 12C13.5006 12.0986 13.4812 12.1962 13.4434 12.2872C13.4057 12.3783 13.3504 12.461 13.2806 12.5306L11.0306 14.7806C10.8899 14.9214 10.699 15.0004 10.5 15.0004C10.301 15.0004 10.1101 14.9214 9.96937 14.7806C9.82864 14.6399 9.74958 14.449 9.74958 14.25C9.74958 14.051 9.82864 13.8601 9.96937 13.7194L11.6897 12L9.96937 10.2806C9.82864 10.1399 9.74958 9.94902 9.74958 9.75C9.74958 9.55098 9.82864 9.36011 9.96937 9.21937C10.1101 9.07864 10.301 8.99958 10.5 8.99958C10.699 8.99958 10.8899 9.07864 11.0306 9.21937L13.2806 11.4694ZM6.53063 9.21937C6.46097 9.14964 6.37825 9.09432 6.28721 9.05658C6.19616 9.01884 6.09856 8.99941 6 8.99941C5.90144 8.99941 5.80384 9.01884 5.71279 9.05658C5.62175 9.09432 5.53903 9.14964 5.46937 9.21937L3.21937 11.4694C3.14964 11.539 3.09432 11.6217 3.05658 11.7128C3.01884 11.8038 2.99941 11.9014 2.99941 12C2.99941 12.0986 3.01884 12.1962 3.05658 12.2872C3.09432 12.3783 3.14964 12.461 3.21937 12.5306L5.46937 14.7806C5.53906 14.8503 5.62178 14.9056 5.71283 14.9433C5.80387 14.981 5.90145 15.0004 6 15.0004C6.09855 15.0004 6.19613 14.981 6.28717 14.9433C6.37822 14.9056 6.46094 14.8503 6.53063 14.7806C6.60031 14.7109 6.65558 14.6282 6.6933 14.5372C6.73101 14.4461 6.75042 14.3485 6.75042 14.25C6.75042 14.1515 6.73101 14.0539 6.6933 13.9628C6.65558 13.8718 6.60031 13.7891 6.53063 13.7194L4.81031 12L6.53063 10.2806C6.60036 10.211 6.65568 10.1283 6.69342 10.0372C6.73116 9.94616 6.75059 9.84856 6.75059 9.75C6.75059 9.65144 6.73116 9.55384 6.69342 9.4628C6.65568 9.37175 6.60036 9.28903 6.53063 9.21937ZM16.5 6V18C16.5 18.3978 16.342 18.7794 16.0607 19.0607C15.7794 19.342 15.3978 19.5 15 19.5H1.5C1.10218 19.5 0.720644 19.342 0.43934 19.0607C0.158035 18.7794 0 18.3978 0 18V1.5C0 1.10218 0.158035 0.720645 0.43934 0.43934C0.720644 0.158035 1.10218 2.31899e-07 1.5 2.31899e-07H10.5C10.5985 -7.72394e-05 10.6961 0.0192569 10.7871 0.0568979C10.8782 0.094539 10.9609 0.149749 11.0306 0.219375L16.2806 5.46938C16.3503 5.53908 16.4055 5.62182 16.4431 5.71286C16.4807 5.80391 16.5001 5.90148 16.5 6ZM11.25 5.25H13.9397L11.25 2.56031V5.25ZM15 18V6.75H10.5C10.3011 6.75 10.1103 6.67098 9.96967 6.53033C9.82902 6.38968 9.75 6.19891 9.75 6V1.5H1.5V18H15Z" fill="#777BB3"/>
</svg>
