<svg width="18" height="21" viewBox="0 0 18 21" fill="none" xmlns="http://www.w3.org/2000/svg">
<path d="M17.5 0.875002C17.5 1.10707 17.4078 1.32963 17.2437 1.49372C17.0796 1.65781 16.8571 1.75 16.625 1.75H13.4214C12.8065 1.74983 12.211 1.96556 11.7389 2.35954C11.2667 2.75352 10.9479 3.30076 10.838 3.90578L9.79891 9.625H14.875C15.1071 9.625 15.3296 9.71719 15.4937 9.88128C15.6578 10.0454 15.75 10.2679 15.75 10.5C15.75 10.7321 15.6578 10.9546 15.4937 11.1187C15.3296 11.2828 15.1071 11.375 14.875 11.375H9.48062L8.38688 17.4081C8.20337 18.4167 7.6715 19.3289 6.8841 19.9853C6.09669 20.6418 5.10376 21.0009 4.07859 21H0.875C0.642936 21 0.420376 20.9078 0.256282 20.7437C0.0921874 20.5796 0 20.3571 0 20.125C0 19.8929 0.0921874 19.6704 0.256282 19.5063C0.420376 19.3422 0.642936 19.25 0.875 19.25H4.07859C4.69352 19.2502 5.289 19.0344 5.76114 18.6405C6.23327 18.2465 6.55211 17.6992 6.66203 17.0942L7.70109 11.375H2.625C2.39294 11.375 2.17038 11.2828 2.00628 11.1187C1.84219 10.9546 1.75 10.7321 1.75 10.5C1.75 10.2679 1.84219 10.0454 2.00628 9.88128C2.17038 9.71719 2.39294 9.625 2.625 9.625H8.01937L9.11313 3.59188C9.29663 2.58327 9.8285 1.67113 10.6159 1.01466C11.4033 0.35819 12.3962 -0.000921745 13.4214 1.77682e-06H16.625C16.8571 1.77682e-06 17.0796 0.0921892 17.2437 0.256284C17.4078 0.420378 17.5 0.642937 17.5 0.875002Z" fill="#777BB3"/>
</svg>
