<svg width="20" height="27" viewBox="0 0 20 27" fill="none" xmlns="http://www.w3.org/2000/svg">
<path d="M19.2322 12.0455C19.1991 11.9052 19.1318 11.7753 19.0364 11.6673C18.941 11.5593 18.8204 11.4766 18.6853 11.4264L12.3842 9.0628L13.9877 1.04234C14.024 0.855984 13.9987 0.662878 13.9156 0.492159C13.8325 0.32144 13.6962 0.182371 13.5272 0.0959373C13.3581 0.00950344 13.1656 -0.0196051 12.9785 0.0130043C12.7915 0.0456137 12.6201 0.138171 12.4903 0.276711L0.240319 13.4017C0.140826 13.5065 0.0688517 13.6344 0.0308262 13.7738C-0.00719938 13.9133 -0.0100918 14.06 0.0224077 14.2008C0.0549071 14.3416 0.121786 14.4722 0.217069 14.5809C0.312352 14.6896 0.433073 14.7729 0.568444 14.8236L6.87172 17.1872L5.27266 25.1989C5.23635 25.3852 5.26164 25.5784 5.34471 25.7491C5.42778 25.9198 5.56412 26.0589 5.73316 26.1453C5.9022 26.2317 6.09477 26.2608 6.2818 26.2282C6.46884 26.1956 6.64019 26.1031 6.77001 25.9645L19.02 12.8395C19.1177 12.7347 19.1881 12.6074 19.2251 12.469C19.2621 12.3305 19.2646 12.1851 19.2322 12.0455ZM7.59251 22.5269L8.73766 16.7978C8.77865 16.5946 8.74617 16.3835 8.64602 16.202C8.54587 16.0205 8.38454 15.8805 8.19079 15.8069L2.41141 13.6358L11.6667 3.71984L10.5227 9.4489C10.4817 9.65208 10.5142 9.86322 10.6143 10.0447C10.7145 10.2262 10.8758 10.3662 11.0695 10.4398L16.8445 12.6055L7.59251 22.5269Z" fill="#777BB3"/>
</svg>
