<svg width="21" height="24" viewBox="0 0 21 24" fill="none" xmlns="http://www.w3.org/2000/svg">
<path d="M10.5 11.375C9.76456 11.3752 9.05377 11.6401 8.49754 12.1213C7.94131 12.6024 7.5768 13.2676 7.47062 13.9953C7.36444 14.7231 7.52368 15.4647 7.91925 16.0847C8.31482 16.7047 8.92029 17.1617 9.625 17.372V19.25C9.625 19.4821 9.71719 19.7046 9.88128 19.8687C10.0454 20.0328 10.2679 20.125 10.5 20.125C10.7321 20.125 10.9546 20.0328 11.1187 19.8687C11.2828 19.7046 11.375 19.4821 11.375 19.25V17.372C12.0797 17.1617 12.6852 16.7047 13.0807 16.0847C13.4763 15.4647 13.6356 14.7231 13.5294 13.9953C13.4232 13.2676 13.0587 12.6024 12.5025 12.1213C11.9462 11.6401 11.2354 11.3752 10.5 11.375ZM10.5 15.75C10.2404 15.75 9.98665 15.673 9.77081 15.5288C9.55497 15.3846 9.38675 15.1796 9.28741 14.9398C9.18807 14.6999 9.16208 14.436 9.21272 14.1814C9.26336 13.9268 9.38837 13.693 9.57192 13.5094C9.75548 13.3259 9.98934 13.2009 10.2439 13.1502C10.4985 13.0996 10.7624 13.1256 11.0023 13.2249C11.2421 13.3242 11.4471 13.4925 11.5913 13.7083C11.7355 13.9242 11.8125 14.1779 11.8125 14.4375C11.8125 14.7856 11.6742 15.1194 11.4281 15.3656C11.1819 15.6117 10.8481 15.75 10.5 15.75ZM19.25 7.875H15.75V5.25C15.75 3.85761 15.1969 2.52226 14.2123 1.53769C13.2277 0.553123 11.8924 0 10.5 0C9.10761 0 7.77226 0.553123 6.78769 1.53769C5.80312 2.52226 5.25 3.85761 5.25 5.25V7.875H1.75C1.28587 7.875 0.840752 8.05937 0.512563 8.38756C0.184374 8.71575 0 9.16087 0 9.625V21.875C0 22.3391 0.184374 22.7842 0.512563 23.1124C0.840752 23.4406 1.28587 23.625 1.75 23.625H19.25C19.7141 23.625 20.1592 23.4406 20.4874 23.1124C20.8156 22.7842 21 22.3391 21 21.875V9.625C21 9.16087 20.8156 8.71575 20.4874 8.38756C20.1592 8.05937 19.7141 7.875 19.25 7.875ZM7 5.25C7 4.32174 7.36875 3.4315 8.02513 2.77513C8.6815 2.11875 9.57174 1.75 10.5 1.75C11.4283 1.75 12.3185 2.11875 12.9749 2.77513C13.6313 3.4315 14 4.32174 14 5.25V7.875H7V5.25ZM19.25 21.875H1.75V9.625H19.25V21.875Z" fill="#777BB3"/>
</svg>
