<svg width="468" height="133" viewBox="0 0 468 133" fill="none" xmlns="http://www.w3.org/2000/svg">
<g clip-path="url(#clip0_21_13)">
<path fill-rule="evenodd" clip-rule="evenodd" d="M22.2998 125.799H1.2998L19.9998 29.6992H60.2998C72.3998 29.6992 81.2998 32.8992 86.7998 39.1992C92.3998 45.5992 93.9998 54.3992 91.7998 65.8992C90.8998 70.5992 89.2998 74.8992 87.1998 78.7992C84.9998 82.6992 82.1998 86.2992 78.6998 89.4992C74.4998 93.3992 69.8998 96.1992 64.7998 97.8992C59.6998 99.5992 53.1998 100.399 45.1998 100.399H27.1998L22.2998 125.799ZM68.1998 49.1992C65.4998 46.2992 60.1998 44.7992 52.2998 44.7992H37.9998L30.1998 85.0992H42.8998C51.2998 85.0992 57.5998 83.4992 61.7998 80.2992C65.8998 77.0992 68.6998 71.7992 70.1998 64.3992C71.4998 57.1992 70.7998 52.1992 68.1998 49.1992Z" fill="white"/>
<path d="M107.1 4.09961H127.9L122.9 29.6996H141.4C153.1 29.6996 161.1 31.6996 165.5 35.7996C169.9 39.8996 171.3 46.4996 169.5 55.5996L160.8 100.4H139.7L148 57.7996C148.9 52.9996 148.6 49.6996 147 47.8996C145.4 46.0996 141.9 45.2996 136.6 45.2996H120L109.3 100.4H88.4004L107.1 4.09961Z" fill="white"/>
<path fill-rule="evenodd" clip-rule="evenodd" d="M185.7 125.799H164.7L183.4 29.6992H223.8C235.9 29.6992 244.8 32.8992 250.3 39.1992C255.9 45.5992 257.5 54.3992 255.3 65.8992C254.4 70.5992 252.8 74.8992 250.7 78.7992C248.5 82.6992 245.7 86.2992 242.2 89.4992C238 93.3992 233.4 96.1992 228.3 97.8992C223.2 99.5992 216.7 100.399 208.7 100.399H190.7L185.7 125.799ZM231.7 49.1992C229 46.2992 223.7 44.7992 215.8 44.7992H201.4L193.6 85.0992H206.3C214.7 85.0992 221 83.4992 225.2 80.2992C229.3 77.0992 232.1 71.7992 233.6 64.3992C234.9 57.1992 234.3 52.1992 231.7 49.1992Z" fill="white"/>
<path d="M318 48.5C312.3 34.9 307.5 23.1 312.2 14.9C314 12.4 316 11.1 318.2 11.1C322.7 11.1 326.8 16 326.8 16L332.5 22.9L328.9 14.7C328.7 14.4 322.6 0.5 311.7 0.5C307.9 0.5 303.9 2.2 300 5.6L299.9 5.7C290.4 16.7 299.7 37.5 308 55.8L314.1 70C316.9 77.3 319.7 86 318 92.4C315.4 102.4 306.5 109.2 306.4 109.3L300.7 113.7L307.6 111.5C308.3 111.3 323.6 106.3 327.3 93C329.6 82.1 326.7 71.2 323.8 62.8C323.4 63.1 324.2 62.5 323.8 62.8L318.5 49.1" fill="white"/>
<path d="M334.9 9.89961L327.8 2.09961L332.9 11.3996C333 11.4996 339.2 23.0996 331.3 36.5996C328.4 40.7996 323.9 44.9996 318.2 49.1996L307.9 55.8996C307.8 55.6996 307.8 55.7996 307.9 55.8996L307.5 56.1996C296 62.7996 285.3 66.7996 285.1 66.8996C269.2 73.9996 259.2 84.9996 257.8 97.1996C256.7 106.4 261 115.4 269.4 121.7L269.5 121.8C274.8 125 280.5 126.6 286.5 126.6C302.2 126.6 314.5 115.7 315 115.2L322.7 108.3L313.6 113.1C313.5 113.1 305.9 117.1 298 117.1C290.9 117.1 285.9 114 282.9 107.7C279.1 94.2996 292.4 85.0996 307.7 74.4996C309.7 73.0996 311.8 71.5996 313.9 70.1996L314 70.0996L323.1 63.2996C323.2 63.0996 323.5 62.8996 323.5 62.8996C331 56.6996 340.9 46.9996 343.2 33.3996C345 21.0996 335.3 10.3996 334.9 9.89961Z" fill="#0F0F0F"/>
<path d="M345.9 83H365.4L361.9 100.7H342.4L345.9 83Z" fill="white"/>
<path d="M376.18 86.24H417.94C419.78 86.32 421.54 86.2 423.22 85.88C424.9 85.48 426.46 84.92 427.9 84.2C429.26 83.48 430.46 82.4 431.5 80.96C432.54 79.52 433.34 77.72 433.9 75.56C434.54 73.4 434.7 71.6 434.38 70.16C434.14 68.72 433.54 67.64 432.58 66.92C431.54 66.2 430.26 65.68 428.74 65.36C427.3 64.96 425.62 64.76 423.7 64.76L382.06 64.64L395.38 14.84H467.02L463.06 29.6H410.5L405.1 49.88H435.94C439.94 49.96 443.38 50.56 446.26 51.68C449.14 52.8 451.46 54.44 453.22 56.6C454.98 58.76 456.02 61.44 456.34 64.64C456.66 67.76 456.26 71.4 455.14 75.56C453.86 80.36 452.02 84.44 449.62 87.8C447.3 91.08 444.5 93.64 441.22 95.48C437.86 97.32 434.26 98.72 430.42 99.68C426.58 100.56 422.5 101 418.18 101H372.34L376.18 86.24Z" fill="white"/>
</g>
<defs>
<clipPath id="clip0_21_13">
<rect width="467" height="133" fill="white" transform="translate(0.5)"/>
</clipPath>
</defs>
</svg>
