<svg width="26" height="26" viewBox="0 0 26 26" fill="none" xmlns="http://www.w3.org/2000/svg">
<path d="M19.8648 13.2409L14.2232 11.1562L12.1451 5.51031C12.022 5.17598 11.7994 4.88745 11.5072 4.68364C11.215 4.47983 10.8673 4.37055 10.511 4.37055C10.1548 4.37055 9.80707 4.47983 9.51487 4.68364C9.22266 4.88745 9.00001 5.17598 8.87695 5.51031L6.7857 11.1562L1.13976 13.2344C0.805431 13.3574 0.516897 13.5801 0.313087 13.8723C0.109277 14.1645 0 14.5122 0 14.8684C0 15.2247 0.109277 15.5724 0.313087 15.8646C0.516897 16.1568 0.805431 16.3794 1.13976 16.5025L6.7857 18.5938L8.86382 24.2397C8.98689 24.574 9.20954 24.8625 9.50174 25.0664C9.79394 25.2702 10.1416 25.3794 10.4979 25.3794C10.8541 25.3794 11.2018 25.2702 11.494 25.0664C11.7862 24.8625 12.0089 24.574 12.1319 24.2397L14.2232 18.5938L19.8691 16.5156C20.2035 16.3926 20.492 16.1699 20.6958 15.8777C20.8996 15.5855 21.0089 15.2378 21.0089 14.8816C21.0089 14.5253 20.8996 14.1776 20.6958 13.8854C20.492 13.5932 20.2035 13.3706 19.8691 13.2475L19.8648 13.2409ZM13.2388 17.0866C13.1201 17.1303 13.0122 17.1994 12.9227 17.2889C12.8332 17.3784 12.7642 17.4862 12.7204 17.605L10.5044 23.6086L8.29288 17.6094C8.24918 17.4894 8.17973 17.3804 8.08941 17.29C7.99909 17.1997 7.89009 17.1303 7.77007 17.0866L1.77085 14.875L7.77007 12.6634C7.89009 12.6197 7.99909 12.5503 8.08941 12.46C8.17973 12.3696 8.24918 12.2606 8.29288 12.1406L10.5044 6.14141L12.716 12.1406C12.7598 12.2594 12.8288 12.3673 12.9183 12.4568C13.0078 12.5463 13.1157 12.6153 13.2344 12.6591L19.238 14.875L13.2388 17.0866ZM14.0044 3.5C14.0044 3.26794 14.0966 3.04538 14.2607 2.88128C14.4248 2.71719 14.6474 2.625 14.8794 2.625H16.6294V0.875C16.6294 0.642936 16.7216 0.420376 16.8857 0.256282C17.0498 0.0921872 17.2724 0 17.5044 0C17.7365 0 17.9591 0.0921872 18.1232 0.256282C18.2873 0.420376 18.3794 0.642936 18.3794 0.875V2.625H20.1294C20.3615 2.625 20.5841 2.71719 20.7482 2.88128C20.9123 3.04538 21.0044 3.26794 21.0044 3.5C21.0044 3.73206 20.9123 3.95462 20.7482 4.11872C20.5841 4.28281 20.3615 4.375 20.1294 4.375H18.3794V6.125C18.3794 6.35706 18.2873 6.57962 18.1232 6.74372C17.9591 6.90781 17.7365 7 17.5044 7C17.2724 7 17.0498 6.90781 16.8857 6.74372C16.7216 6.57962 16.6294 6.35706 16.6294 6.125V4.375H14.8794C14.6474 4.375 14.4248 4.28281 14.2607 4.11872C14.0966 3.95462 14.0044 3.73206 14.0044 3.5ZM25.3794 8.75C25.3794 8.98206 25.2873 9.20462 25.1232 9.36872C24.9591 9.53281 24.7365 9.625 24.5044 9.625H23.6294V10.5C23.6294 10.7321 23.5373 10.9546 23.3732 11.1187C23.2091 11.2828 22.9865 11.375 22.7544 11.375C22.5224 11.375 22.2998 11.2828 22.1357 11.1187C21.9716 10.9546 21.8794 10.7321 21.8794 10.5V9.625H21.0044C20.7724 9.625 20.5498 9.53281 20.3857 9.36872C20.2216 9.20462 20.1294 8.98206 20.1294 8.75C20.1294 8.51794 20.2216 8.29538 20.3857 8.13128C20.5498 7.96719 20.7724 7.875 21.0044 7.875H21.8794V7C21.8794 6.76794 21.9716 6.54538 22.1357 6.38128C22.2998 6.21719 22.5224 6.125 22.7544 6.125C22.9865 6.125 23.2091 6.21719 23.3732 6.38128C23.5373 6.54538 23.6294 6.76794 23.6294 7V7.875H24.5044C24.7365 7.875 24.9591 7.96719 25.1232 8.13128C25.2873 8.29538 25.3794 8.51794 25.3794 8.75Z" fill="#777BB3"/>
</svg>
