<svg width="18" height="14" viewBox="0 0 18 14" fill="none" xmlns="http://www.w3.org/2000/svg">
<path d="M7.99974 7.31396L1.24974 13.314C1.17587 13.3794 1.08984 13.4296 0.996551 13.4618C0.903265 13.494 0.804552 13.5075 0.706049 13.5015C0.607547 13.4956 0.511183 13.4703 0.42246 13.4271C0.333738 13.3839 0.254394 13.3236 0.188959 13.2497C0.123524 13.1759 0.0732785 13.0898 0.0410925 12.9966C0.00890655 12.9033 -0.00458994 12.8046 0.00137332 12.706C0.00733659 12.6075 0.0326429 12.5112 0.0758475 12.4225C0.119052 12.3337 0.179309 12.2544 0.253178 12.189L6.37693 6.75146L0.254115 1.31396C0.180246 1.24852 0.11999 1.16918 0.0767852 1.08046C0.0335806 0.991735 0.00827393 0.895371 0.00231067 0.796868C-0.0036526 0.698366 0.00984425 0.599653 0.0420302 0.506366C0.0742162 0.41308 0.124461 0.327046 0.189896 0.253178C0.255332 0.179309 0.334676 0.119052 0.423398 0.0758475C0.512121 0.0326429 0.608484 0.00733658 0.706987 0.00137332C0.80549 -0.00458994 0.904202 0.00890655 0.997489 0.0410925C1.09078 0.0732785 1.17681 0.123524 1.25068 0.188959L8.00068 6.18896C8.08048 6.25934 8.1444 6.3459 8.18818 6.44288C8.23196 6.53986 8.2546 6.64505 8.2546 6.75146C8.2546 6.85787 8.23196 6.96305 8.18818 7.06004C8.1444 7.15702 8.08048 7.24358 8.00068 7.31396H7.99974ZM17.2519 12.0015H8.25193C8.05302 12.0015 7.86225 12.0805 7.7216 12.2211C7.58095 12.3618 7.50193 12.5525 7.50193 12.7515C7.50193 12.9504 7.58095 13.1411 7.7216 13.2818C7.86225 13.4224 8.05302 13.5015 8.25193 13.5015H17.2519C17.4508 13.5015 17.6416 13.4224 17.7823 13.2818C17.9229 13.1411 18.0019 12.9504 18.0019 12.7515C18.0019 12.5525 17.9229 12.3618 17.7823 12.2211C17.6416 12.0805 17.4508 12.0015 17.2519 12.0015Z" fill="#777BB3"/>
</svg>
